<svg width="312" height="120" fill="none" xmlns="http://www.w3.org/2000/svg"><path d="M0 29.429C0 14.13 10.64 0 28.89 0s30.57 12.806 30.57 29.904c0 15.298-10.48 29.429-28.81 29.429S0 46.606 0 29.429Zm47.05 18.897c0-16.78-17.76-43.955-29.21-43.955-3.2 0-5.36 2.264-5.36 6.635 0 16.781 18.09 43.956 29.13 43.956 3.52 0 5.44-2.107 5.44-6.636ZM124.75 1.562l-7.2 4.055V57.77h-4.16L72.34 10.62l3.2 45.904h9.68v1.246H65.05v-1.246h4.4l1.28-50.433-7.68-4.529h24.41L115.95 35.6l-4.48-29.983-7.2-4.055h20.49-.01ZM127.95 29.429C127.95 14.13 138.59 0 156.84 0s30.57 12.806 30.57 29.904c0 15.298-10.48 29.429-28.81 29.429s-30.65-12.727-30.65-29.904ZM175 48.326c0-16.78-17.77-43.955-29.21-43.955-3.2 0-5.36 2.264-5.36 6.635 0 16.781 18.09 43.956 29.13 43.956 3.52 0 5.44-2.107 5.44-6.636ZM197.33 34.66V5.696l-7.12-4.134h31.85l-7.12 4.134v30.052c0 16 4.56 21.152 12.96 21.152 9.04 0 13.44-6.329 12.72-21.469l-1.36-29.745-9.52-4.133h22.73l-7.12 4.133-1.44 32.247c-.72 16.317-6.24 21.39-20.57 21.39-18.8 0-26.01-7.96-26.01-24.673v.01ZM312 23.575h-.08c-6-13.43-12.72-19.827-19.93-20.687v53.636h7.2v1.246h-32.01v-1.246h7.2V2.888c-7.12.86-13.84 7.258-19.85 20.687h-.08V1.562h57.54v22.013h.01ZM63.24 91.54h12.45c6.95 0 10.03 3.827 10.03 9.048 0 5.222-3.12 9.098-10.03 9.098h-9.28V120h-3.17V91.54Zm12.5 15.268c4.97 0 6.78-2.699 6.78-6.22 0-3.52-1.8-6.18-6.78-6.18h-9.33v12.4h9.33ZM88.9 103.159c0-7.485 4.4-12.183 12.41-12.183s12.45 4.698 12.45 12.183V120h-3.17v-9.572H91.98V120H88.9v-16.841Zm21.69 4.391v-4.391c0-5.745-3.17-9.315-9.33-9.315s-9.28 3.57-9.28 9.315v4.391h18.61ZM118.99 91.54h12.72c6.78 0 9.77 3.738 9.77 8.791 0 4.697-2.55 7.832-7.26 8.702L142.54 120h-3.83l-7.79-10.789h-8.76V120h-3.17V91.54Zm12.76 14.794c4.8 0 6.51-2.611 6.51-6.003s-1.72-5.913-6.51-5.913h-9.59v11.926h9.59v-.01ZM154.24 94.408h-9.77V91.54h22.7v2.868h-9.77v25.582h-3.17V94.408h.01ZM169.72 102.724c0-7.179 4.31-11.748 12.1-11.748s12.06 4.57 12.06 11.748V120h-3.17v-17.276c0-5.478-3.08-8.88-8.89-8.88-5.81 0-8.93 3.392-8.93 8.88V120h-3.17v-17.276ZM199.12 91.54h21.12v2.868h-17.95v9.701h15.4v2.868h-15.4v10.136h17.95v2.867h-21.12V91.52v.02ZM225.21 91.54h12.72c6.78 0 9.77 3.738 9.77 8.791 0 4.697-2.55 7.832-7.26 8.702L248.76 120h-3.83l-7.79-10.789h-8.76V120h-3.17V91.54Zm12.76 14.794c4.8 0 6.51-2.611 6.51-6.003s-1.72-5.913-6.51-5.913h-9.59v11.926h9.59v-.01Z" fill="#E8E8E8"/></svg>